<svg id="visual" viewBox="0 0 900 600" width="900" height="600" xmlns="http://www.w3.org/2000/svg" xmlns:xlink="http://www.w3.org/1999/xlink" version="1.1"><rect x="0" y="0" width="900" height="600" fill="#FFFFFF"></rect><defs><linearGradient id="grad1_0" x1="33.3%" y1="100%" x2="100%" y2="0%"><stop offset="20%" stop-color="#4facf7" stop-opacity="1"></stop><stop offset="80%" stop-color="#4facf7" stop-opacity="1"></stop></linearGradient></defs><defs><linearGradient id="grad1_1" x1="33.3%" y1="100%" x2="100%" y2="0%"><stop offset="20%" stop-color="#4facf7" stop-opacity="1"></stop><stop offset="80%" stop-color="#ffffff" stop-opacity="1"></stop></linearGradient></defs><defs><linearGradient id="grad2_0" x1="0%" y1="100%" x2="66.7%" y2="0%"><stop offset="20%" stop-color="#4facf7" stop-opacity="1"></stop><stop offset="80%" stop-color="#4facf7" stop-opacity="1"></stop></linearGradient></defs><defs><linearGradient id="grad2_1" x1="0%" y1="100%" x2="66.7%" y2="0%"><stop offset="20%" stop-color="#ffffff" stop-opacity="1"></stop><stop offset="80%" stop-color="#4facf7" stop-opacity="1"></stop></linearGradient></defs><g transform="translate(900, 600)"><path d="M-297.5 0C-281 -27.3 -264.6 -54.5 -254.9 -82.8C-245.2 -111.1 -242.3 -140.4 -230.6 -167.5C-218.8 -194.6 -198.3 -219.6 -174 -239.5C-149.7 -259.3 -121.5 -274.1 -91.9 -282.9C-62.3 -291.7 -31.1 -294.6 0 -297.5L0 0Z" fill="#b4d4fc"></path><path d="M-148.7 0C-140.5 -13.6 -132.3 -27.3 -127.4 -41.4C-122.6 -55.5 -121.1 -70.2 -115.3 -83.8C-109.4 -97.3 -99.2 -109.8 -87 -119.7C-74.8 -129.7 -60.8 -137 -46 -141.4C-31.1 -145.9 -15.6 -147.3 0 -148.7L0 0Z" fill="#4facf7"></path></g><g transform="translate(0, 0)"><path d="M297.5 0C296.1 31.9 294.7 63.7 282.9 91.9C271.1 120.1 249 144.7 223.3 162.2C197.6 179.7 168.4 190.2 142.8 196.6C117.2 203 95.2 205.5 72 221.6C48.8 237.7 24.4 267.6 0 297.5L0 0Z" fill="#b4d4fc"></path><path d="M148.7 0C148 15.9 147.3 31.9 141.4 46C135.6 60.1 124.5 72.4 111.6 81.1C98.8 89.9 84.2 95.1 71.4 98.3C58.6 101.5 47.6 102.7 36 110.8C24.4 118.9 12.2 133.8 0 148.7L0 0Z" fill="#4facf7"></path></g></svg>